<?xml version="1.0" encoding="UTF-8"?><svg xmlns="http://www.w3.org/2000/svg" xmlns:xlink="http://www.w3.org/1999/xlink" viewBox="0 0 388 293.86"><defs><style>.cls-1,.cls-2,.cls-3{fill:none;}.cls-4{letter-spacing:-.01em;}.cls-5{letter-spacing:0em;}.cls-6{clip-path:url(#clippath);}.cls-7{letter-spacing:0em;}.cls-8{opacity:.68;}.cls-8,.cls-9,.cls-10,.cls-11,.cls-12,.cls-13,.cls-14,.cls-15{mix-blend-mode:overlay;}.cls-9{opacity:.75;}.cls-16{letter-spacing:-.01em;}.cls-17{fill:url(#Degradado_sin_nombre_7-3);}.cls-17,.cls-18,.cls-19,.cls-20,.cls-21{mix-blend-mode:multiply;}.cls-17,.cls-18,.cls-20{opacity:.31;}.cls-18{fill:url(#Degradado_sin_nombre_7-2);}.cls-10{opacity:.41;}.cls-22{letter-spacing:-.01em;}.cls-23{letter-spacing:-.01em;}.cls-11{fill:url(#Degradado_sin_nombre_173);}.cls-24,.cls-25{fill:#f2f4f3;}.cls-26{fill:#fafbff;}.cls-27,.cls-12,.cls-28,.cls-29,.cls-30,.cls-31{fill:#fff;}.cls-32{fill:#e66111;}.cls-33,.cls-34,.cls-19,.cls-35{fill:#bdbec2;}.cls-36{letter-spacing:-.01em;}.cls-2{stroke:#e66111;stroke-width:.93px;}.cls-2,.cls-3{stroke-miterlimit:10;}.cls-34{font-size:6.18px;}.cls-34,.cls-35{font-family:Montserrat-Bold, Montserrat;}.cls-34,.cls-35,.cls-25{font-weight:700;}.cls-37{letter-spacing:0em;}.cls-13{fill:url(#Degradado_sin_nombre_173-3);}.cls-14{fill:url(#Degradado_sin_nombre_173-2);}.cls-38{fill:url(#Degradado_sin_nombre_6-2);}.cls-39{fill:url(#Degradado_sin_nombre_2-8);}.cls-40{fill:url(#Degradado_sin_nombre_2-6);}.cls-41{fill:url(#Degradado_sin_nombre_2-9);}.cls-42{fill:url(#Degradado_sin_nombre_2-4);}.cls-43{fill:url(#Degradado_sin_nombre_2-7);}.cls-44{fill:url(#Degradado_sin_nombre_2-2);}.cls-45{fill:url(#Degradado_sin_nombre_2-3);}.cls-46{fill:url(#Degradado_sin_nombre_2-5);}.cls-47{fill:url(#Degradado_sin_nombre_3-7);}.cls-48{fill:url(#Degradado_sin_nombre_3-8);}.cls-49{fill:url(#Degradado_sin_nombre_3-9);}.cls-50{fill:url(#Degradado_sin_nombre_3-3);}.cls-51{fill:url(#Degradado_sin_nombre_3-4);}.cls-52{fill:url(#Degradado_sin_nombre_3-5);}.cls-53{fill:url(#Degradado_sin_nombre_3-6);}.cls-54{fill:url(#Degradado_sin_nombre_3-2);}.cls-3{opacity:.5;stroke:#bdbec2;stroke-width:.47px;}.cls-55{clip-path:url(#clippath-1);}.cls-56{clip-path:url(#clippath-4);}.cls-57{clip-path:url(#clippath-3);}.cls-58{clip-path:url(#clippath-2);}.cls-59{clip-path:url(#clippath-7);}.cls-60{clip-path:url(#clippath-8);}.cls-61{clip-path:url(#clippath-6);}.cls-62{clip-path:url(#clippath-5);}.cls-63{clip-path:url(#clippath-9);}.cls-64{letter-spacing:0em;}.cls-19,.cls-21{opacity:.45;}.cls-65{letter-spacing:0em;}.cls-20{fill:url(#Degradado_sin_nombre_7);}.cls-66{letter-spacing:0em;}.cls-67{opacity:.23;}.cls-68{opacity:.49;}.cls-28{filter:url(#drop-shadow-4);}.cls-29{filter:url(#drop-shadow-1);}.cls-30{filter:url(#drop-shadow-2);}.cls-31{filter:url(#drop-shadow-3);}.cls-69{fill:url(#Degradado_sin_nombre_6);}.cls-70{fill:url(#Degradado_sin_nombre_2);}.cls-71{fill:url(#Degradado_sin_nombre_3);}.cls-72{fill:url(#Degradado_sin_nombre_9);}.cls-73{fill:url(#Degradado_sin_nombre_5);}.cls-35{font-size:5.43px;}.cls-74{letter-spacing:0em;}.cls-75{font-size:3.66px;}.cls-75,.cls-76{fill:#b3b3b3;font-family:Montserrat-SemiBold, Montserrat;font-weight:600;}.cls-77{isolation:isolate;}.cls-78{letter-spacing:0em;}.cls-79{fill:url(#Degradado_sin_nombre_3-18);}.cls-80{fill:url(#Degradado_sin_nombre_3-17);}.cls-81{fill:url(#Degradado_sin_nombre_3-11);}.cls-82{fill:url(#Degradado_sin_nombre_3-10);}.cls-83{fill:url(#Degradado_sin_nombre_3-13);}.cls-84{fill:url(#Degradado_sin_nombre_3-12);}.cls-85{fill:url(#Degradado_sin_nombre_3-15);}.cls-86{fill:url(#Degradado_sin_nombre_3-14);}.cls-87{fill:url(#Degradado_sin_nombre_3-16);}.cls-88{fill:url(#Degradado_sin_nombre_2-17);}.cls-89{fill:url(#Degradado_sin_nombre_2-19);}.cls-90{fill:url(#Degradado_sin_nombre_2-14);}.cls-91{fill:url(#Degradado_sin_nombre_2-13);}.cls-92{fill:url(#Degradado_sin_nombre_2-16);}.cls-93{fill:url(#Degradado_sin_nombre_2-15);}.cls-94{fill:url(#Degradado_sin_nombre_2-18);}.cls-95{fill:url(#Degradado_sin_nombre_2-23);}.cls-96{fill:url(#Degradado_sin_nombre_2-20);}.cls-97{fill:url(#Degradado_sin_nombre_2-21);}.cls-98{fill:url(#Degradado_sin_nombre_2-27);}.cls-99{fill:url(#Degradado_sin_nombre_2-24);}.cls-100{fill:url(#Degradado_sin_nombre_2-25);}.cls-101{fill:url(#Degradado_sin_nombre_2-22);}.cls-102{fill:url(#Degradado_sin_nombre_2-28);}.cls-103{fill:url(#Degradado_sin_nombre_2-29);}.cls-104{fill:url(#Degradado_sin_nombre_2-26);}.cls-105{fill:url(#Degradado_sin_nombre_2-30);}.cls-106{fill:url(#Degradado_sin_nombre_2-32);}.cls-107{fill:url(#Degradado_sin_nombre_2-31);}.cls-108{fill:url(#Degradado_sin_nombre_2-10);}.cls-109{fill:url(#Degradado_sin_nombre_2-11);}.cls-110{fill:url(#Degradado_sin_nombre_2-12);}.cls-25{font-family:Montserrat-ExtraBold, Montserrat;font-size:4.28px;}.cls-111{letter-spacing:0em;}.cls-112{letter-spacing:0em;}.cls-76{font-size:3.36px;}</style><radialGradient id="Degradado_sin_nombre_7" cx="314.27" cy="247.41" fx="314.27" fy="247.41" r="52.17" gradientTransform="translate(0 204.23) scale(1 .12)" gradientUnits="userSpaceOnUse"><stop offset="0" stop-color="#999"/><stop offset=".16" stop-color="#9b9b9b" stop-opacity=".97"/><stop offset=".33" stop-color="#a3a3a3" stop-opacity=".9"/><stop offset=".49" stop-color="#b0b0b0" stop-opacity=".77"/><stop offset=".65" stop-color="#c3c3c3" stop-opacity=".59"/><stop offset=".81" stop-color="#dbdbdb" stop-opacity=".35"/><stop offset=".97" stop-color="#f8f8f8" stop-opacity=".07"/><stop offset="1" stop-color="#fff" stop-opacity="0"/></radialGradient><linearGradient id="Degradado_sin_nombre_6" x1="-183.46" y1="26.09" x2="-183.46" y2="229.76" gradientTransform="translate(495)" gradientUnits="userSpaceOnUse"><stop offset="0" stop-color="#5c5c5c"/><stop offset=".01" stop-color="#555"/><stop offset=".08" stop-color="#3b3b3b"/><stop offset=".17" stop-color="#252525"/><stop offset=".26" stop-color="#141414"/><stop offset=".38" stop-color="#080808"/><stop offset=".54" stop-color="#010101"/><stop offset="1" stop-color="#000"/></linearGradient><linearGradient id="Degradado_sin_nombre_3" x1="-183.46" y1="27.17" x2="-183.46" y2="159.38" gradientTransform="translate(495)" gradientUnits="userSpaceOnUse"><stop offset="0" stop-color="#f19d07"/><stop offset=".33" stop-color="#ee8d09"/><stop offset=".96" stop-color="#e66310"/><stop offset="1" stop-color="#e66111"/></linearGradient><radialGradient id="Degradado_sin_nombre_173" cx="-204.79" cy="103.17" fx="-204.79" fy="103.17" r="77.35" gradientTransform="translate(495 -43.88) scale(1 1.43)" gradientUnits="userSpaceOnUse"><stop offset="0" stop-color="#fff"/><stop offset=".09" stop-color="#fff" stop-opacity=".84"/><stop offset=".23" stop-color="#fff" stop-opacity=".62"/><stop offset=".36" stop-color="#fff" stop-opacity=".43"/><stop offset=".5" stop-color="#fff" stop-opacity=".27"/><stop offset=".63" stop-color="#fff" stop-opacity=".15"/><stop offset=".76" stop-color="#fff" stop-opacity=".07"/><stop offset=".89" stop-color="#fff" stop-opacity=".02"/><stop offset="1" stop-color="#fff" stop-opacity="0"/></radialGradient><linearGradient id="Degradado_sin_nombre_2" x1="-153.61" y1="55.05" x2="-153.61" y2="65.54" gradientTransform="translate(495)" gradientUnits="userSpaceOnUse"><stop offset="0" stop-color="#e66111"/><stop offset=".04" stop-color="#e66310"/><stop offset=".67" stop-color="#ee8d09"/><stop offset="1" stop-color="#f19d07"/></linearGradient><clipPath id="clippath"><rect class="cls-1" x="278.96" y="167.75" width="15.96" height="17.18" rx="3.41" ry="3.41"/></clipPath><clipPath id="clippath-1"><rect class="cls-1" x="278.96" y="143.88" width="15.96" height="17.18" rx="3.41" ry="3.41"/></clipPath><clipPath id="clippath-2"><rect class="cls-1" x="278.96" y="120.01" width="15.96" height="17.18" rx="3.41" ry="3.41"/></clipPath><linearGradient id="Degradado_sin_nombre_2-2" x1="312.23" y1="197.89" x2="312.23" y2="206.3" gradientTransform="matrix(1, 0, 0, 1, 0, 0)" xlink:href="#Degradado_sin_nombre_2"/><linearGradient id="Degradado_sin_nombre_2-3" x1="296.79" y1="197.89" x2="296.79" y2="206.3" gradientTransform="matrix(1, 0, 0, 1, 0, 0)" xlink:href="#Degradado_sin_nombre_2"/><linearGradient id="Degradado_sin_nombre_2-4" x1="280.02" y1="198.37" x2="280.02" y2="207.24" gradientTransform="matrix(1, 0, 0, 1, 0, 0)" xlink:href="#Degradado_sin_nombre_2"/><linearGradient id="Degradado_sin_nombre_2-5" x1="280.05" y1="198.37" x2="280.05" y2="207.24" gradientTransform="matrix(1, 0, 0, 1, 0, 0)" xlink:href="#Degradado_sin_nombre_2"/><linearGradient id="Degradado_sin_nombre_2-6" x1="327.37" y1="197.9" x2="327.37" y2="206.3" gradientTransform="matrix(1, 0, 0, 1, 0, 0)" xlink:href="#Degradado_sin_nombre_2"/><linearGradient id="Degradado_sin_nombre_2-7" x1="327.35" y1="197.89" x2="327.35" y2="206.3" gradientTransform="matrix(1, 0, 0, 1, 0, 0)" xlink:href="#Degradado_sin_nombre_2"/><linearGradient id="Degradado_sin_nombre_2-8" x1="342.74" y1="197.89" x2="342.74" y2="206.3" gradientTransform="matrix(1, 0, 0, 1, 0, 0)" xlink:href="#Degradado_sin_nombre_2"/><linearGradient id="Degradado_sin_nombre_2-9" x1="346.25" y1="197.89" x2="346.25" y2="206.3" gradientTransform="matrix(1, 0, 0, 1, 0, 0)" xlink:href="#Degradado_sin_nombre_2"/><linearGradient id="Degradado_sin_nombre_2-10" x1="343.75" y1="197.89" x2="343.75" y2="206.3" gradientTransform="matrix(1, 0, 0, 1, 0, 0)" xlink:href="#Degradado_sin_nombre_2"/><linearGradient id="Degradado_sin_nombre_9" x1="-402.47" y1="26.09" x2="-402.47" y2="229.76" gradientTransform="translate(495)" gradientUnits="userSpaceOnUse"><stop offset="0" stop-color="#5c5c5c"/><stop offset=".28" stop-color="#373737"/><stop offset=".57" stop-color="#191919"/><stop offset=".82" stop-color="#060606"/><stop offset="1" stop-color="#000"/></linearGradient><linearGradient id="Degradado_sin_nombre_3-2" x1="-402.47" y1="27.46" x2="-402.47" y2="184.14" xlink:href="#Degradado_sin_nombre_3"/><linearGradient id="Degradado_sin_nombre_2-11" x1="-375.92" y1="58.45" x2="-375.92" y2="68.08" xlink:href="#Degradado_sin_nombre_2"/><clipPath id="clippath-3"><rect class="cls-1" x="63.54" y="77.6" width="15.96" height="17.18" rx="3.41" ry="3.41"/></clipPath><linearGradient id="Degradado_sin_nombre_3-3" x1="72.7" y1="94.03" x2="72.7" y2="82.44" gradientTransform="matrix(1, 0, 0, 1, 0, 0)" xlink:href="#Degradado_sin_nombre_3"/><linearGradient id="Degradado_sin_nombre_3-4" x1="67.04" y1="94.03" x2="67.04" y2="82.44" gradientTransform="matrix(1, 0, 0, 1, 0, 0)" xlink:href="#Degradado_sin_nombre_3"/><clipPath id="clippath-4"><rect class="cls-1" x="84.24" y="77.6" width="15.96" height="17.18" rx="3.41" ry="3.41"/></clipPath><linearGradient id="Degradado_sin_nombre_3-5" x1="93.4" y1="94.03" x2="93.4" y2="82.44" gradientTransform="matrix(1, 0, 0, 1, 0, 0)" xlink:href="#Degradado_sin_nombre_3"/><linearGradient id="Degradado_sin_nombre_3-6" x1="87.74" y1="94.03" x2="87.74" y2="82.44" gradientTransform="matrix(1, 0, 0, 1, 0, 0)" xlink:href="#Degradado_sin_nombre_3"/><clipPath id="clippath-5"><rect class="cls-1" x="104.94" y="77.6" width="15.96" height="17.18" rx="3.41" ry="3.41"/></clipPath><linearGradient id="Degradado_sin_nombre_3-7" x1="114.1" y1="94.03" x2="114.1" y2="82.44" gradientTransform="matrix(1, 0, 0, 1, 0, 0)" xlink:href="#Degradado_sin_nombre_3"/><linearGradient id="Degradado_sin_nombre_3-8" x1="108.43" y1="94.03" x2="108.43" y2="82.44" gradientTransform="matrix(1, 0, 0, 1, 0, 0)" xlink:href="#Degradado_sin_nombre_3"/><clipPath id="clippath-6"><rect class="cls-1" x="63.54" y="101.55" width="15.96" height="17.18" rx="3.41" ry="3.41"/></clipPath><linearGradient id="Degradado_sin_nombre_3-9" x1="72.7" y1="117.98" x2="72.7" y2="106.39" gradientTransform="matrix(1, 0, 0, 1, 0, 0)" xlink:href="#Degradado_sin_nombre_3"/><linearGradient id="Degradado_sin_nombre_3-10" x1="67.04" y1="117.98" x2="67.04" y2="106.39" gradientTransform="matrix(1, 0, 0, 1, 0, 0)" xlink:href="#Degradado_sin_nombre_3"/><clipPath id="clippath-7"><rect class="cls-1" x="84.24" y="101.55" width="15.96" height="17.18" rx="3.41" ry="3.41"/></clipPath><linearGradient id="Degradado_sin_nombre_3-11" x1="93.4" y1="117.98" x2="93.4" y2="106.39" gradientTransform="matrix(1, 0, 0, 1, 0, 0)" xlink:href="#Degradado_sin_nombre_3"/><linearGradient id="Degradado_sin_nombre_3-12" x1="87.74" y1="117.98" x2="87.74" y2="106.39" gradientTransform="matrix(1, 0, 0, 1, 0, 0)" xlink:href="#Degradado_sin_nombre_3"/><clipPath id="clippath-8"><rect class="cls-1" x="104.94" y="101.55" width="15.96" height="17.18" rx="3.41" ry="3.41"/></clipPath><linearGradient id="Degradado_sin_nombre_3-13" x1="114.1" y1="117.98" x2="114.1" y2="106.39" gradientTransform="matrix(1, 0, 0, 1, 0, 0)" xlink:href="#Degradado_sin_nombre_3"/><linearGradient id="Degradado_sin_nombre_3-14" x1="108.43" y1="117.98" x2="108.43" y2="106.39" gradientTransform="matrix(1, 0, 0, 1, 0, 0)" xlink:href="#Degradado_sin_nombre_3"/><linearGradient id="Degradado_sin_nombre_2-12" x1="93.61" y1="38.24" x2="93.61" y2="46.91" gradientTransform="matrix(1, 0, 0, 1, 0, 0)" xlink:href="#Degradado_sin_nombre_2"/><linearGradient id="Degradado_sin_nombre_2-13" x1="93.61" y1="38.24" x2="93.61" y2="46.91" gradientTransform="matrix(1, 0, 0, 1, 0, 0)" xlink:href="#Degradado_sin_nombre_2"/><linearGradient id="Degradado_sin_nombre_2-14" x1="92.76" y1="172.94" x2="92.76" y2="196.84" gradientTransform="matrix(1, 0, 0, 1, 0, 0)" xlink:href="#Degradado_sin_nombre_2"/><linearGradient id="Degradado_sin_nombre_2-15" x1="94.27" y1="200.81" x2="94.27" y2="209.22" gradientTransform="matrix(1, 0, 0, 1, 0, 0)" xlink:href="#Degradado_sin_nombre_2"/><linearGradient id="Degradado_sin_nombre_2-16" x1="78.82" y1="200.81" x2="78.82" y2="209.22" gradientTransform="matrix(1, 0, 0, 1, 0, 0)" xlink:href="#Degradado_sin_nombre_2"/><linearGradient id="Degradado_sin_nombre_2-17" x1="62.06" y1="201.29" x2="62.06" y2="210.15" gradientTransform="matrix(1, 0, 0, 1, 0, 0)" xlink:href="#Degradado_sin_nombre_2"/><linearGradient id="Degradado_sin_nombre_2-18" x1="62.09" y1="201.29" x2="62.09" y2="210.15" gradientTransform="matrix(1, 0, 0, 1, 0, 0)" xlink:href="#Degradado_sin_nombre_2"/><linearGradient id="Degradado_sin_nombre_2-19" x1="109.41" y1="200.81" x2="109.41" y2="209.22" gradientTransform="matrix(1, 0, 0, 1, 0, 0)" xlink:href="#Degradado_sin_nombre_2"/><linearGradient id="Degradado_sin_nombre_2-20" x1="109.39" y1="200.81" x2="109.39" y2="209.22" gradientTransform="matrix(1, 0, 0, 1, 0, 0)" xlink:href="#Degradado_sin_nombre_2"/><linearGradient id="Degradado_sin_nombre_2-21" x1="124.78" y1="200.81" x2="124.78" y2="209.22" gradientTransform="matrix(1, 0, 0, 1, 0, 0)" xlink:href="#Degradado_sin_nombre_2"/><linearGradient id="Degradado_sin_nombre_2-22" x1="128.28" y1="200.81" x2="128.28" y2="209.22" gradientTransform="matrix(1, 0, 0, 1, 0, 0)" xlink:href="#Degradado_sin_nombre_2"/><linearGradient id="Degradado_sin_nombre_2-23" x1="125.79" y1="200.81" x2="125.79" y2="209.22" gradientTransform="matrix(1, 0, 0, 1, 0, 0)" xlink:href="#Degradado_sin_nombre_2"/><radialGradient id="Degradado_sin_nombre_173-2" cx="-423.79" fx="-423.79" xlink:href="#Degradado_sin_nombre_173"/><radialGradient id="Degradado_sin_nombre_7-2" cx="91.94" cy="246.99" fx="91.94" fy="246.99" r="52.17" gradientTransform="translate(0 203.62) scale(1 .12)" xlink:href="#Degradado_sin_nombre_7"/><filter id="drop-shadow-1" filterUnits="userSpaceOnUse"><feOffset dx="1.97" dy="2.95"/><feGaussianBlur result="blur" stdDeviation="2.95"/><feFlood flood-color="#b8b5ba" flood-opacity=".75"/><feComposite in2="blur" operator="in"/><feComposite in="SourceGraphic"/></filter><linearGradient id="Degradado_sin_nombre_2-24" x1="15.06" y1="126.09" x2="15.06" y2="157.85" gradientTransform="matrix(1, 0, 0, 1, 0, 0)" xlink:href="#Degradado_sin_nombre_2"/><linearGradient id="Degradado_sin_nombre_2-25" x1="55.84" y1="133.64" x2="55.84" y2="152.21" gradientTransform="matrix(1, 0, 0, 1, 0, 0)" xlink:href="#Degradado_sin_nombre_2"/><linearGradient id="Degradado_sin_nombre_2-26" x1="88.27" y1="133.64" x2="88.27" y2="152.21" gradientTransform="matrix(1, 0, 0, 1, 0, 0)" xlink:href="#Degradado_sin_nombre_2"/><clipPath id="clippath-9"><rect class="cls-1" x="8.64" y="131.89" width="12.31" height="13.25" rx="2.63" ry="2.63"/></clipPath><linearGradient id="Degradado_sin_nombre_3-15" x1="15.7" y1="144.56" x2="15.7" y2="135.62" gradientTransform="matrix(1, 0, 0, 1, 0, 0)" xlink:href="#Degradado_sin_nombre_3"/><linearGradient id="Degradado_sin_nombre_3-16" x1="11.34" y1="144.56" x2="11.34" y2="135.62" gradientTransform="matrix(1, 0, 0, 1, 0, 0)" xlink:href="#Degradado_sin_nombre_3"/><radialGradient id="Degradado_sin_nombre_7-3" cx="207.36" cy="279.79" fx="207.36" fy="279.79" r="57.59" gradientTransform="translate(0 250.22) scale(1 .12)" xlink:href="#Degradado_sin_nombre_7"/><linearGradient id="Degradado_sin_nombre_6-2" x1="202.76" y1="54.72" x2="202.76" y2="281.85" gradientTransform="matrix(1, 0, 0, 1, 0, 0)" xlink:href="#Degradado_sin_nombre_6"/><linearGradient id="Degradado_sin_nombre_5" x1="202.76" y1="123.19" x2="202.76" y2="225.01" gradientUnits="userSpaceOnUse"><stop offset="0" stop-color="#d8d9de"/><stop offset=".3" stop-color="#dedfe4"/><stop offset="1" stop-color="#eaebf0"/></linearGradient><linearGradient id="Degradado_sin_nombre_3-17" x1="202.76" y1="55.29" x2="202.76" y2="149.9" gradientTransform="matrix(1, 0, 0, 1, 0, 0)" xlink:href="#Degradado_sin_nombre_3"/><radialGradient id="Degradado_sin_nombre_173-3" cx="178.98" cy="140.68" fx="178.98" fy="140.68" r="86.26" gradientTransform="translate(0 -59.84) scale(1 1.43)" xlink:href="#Degradado_sin_nombre_173"/><linearGradient id="Degradado_sin_nombre_3-18" x1="202.84" y1="87.59" x2="202.84" y2="102.94" gradientTransform="matrix(1, 0, 0, 1, 0, 0)" xlink:href="#Degradado_sin_nombre_3"/><linearGradient id="Degradado_sin_nombre_2-27" x1="202.84" y1="87.59" x2="202.84" y2="107.42" gradientTransform="matrix(1, 0, 0, 1, 0, 0)" xlink:href="#Degradado_sin_nombre_2"/><linearGradient id="Degradado_sin_nombre_2-28" x1="203.25" y1="221.24" x2="203.25" y2="234.28" gradientTransform="matrix(1, 0, 0, 1, 0, 0)" xlink:href="#Degradado_sin_nombre_2"/><filter id="drop-shadow-2" filterUnits="userSpaceOnUse"><feOffset dx="1.97" dy="2.95"/><feGaussianBlur result="blur-2" stdDeviation="2.95"/><feFlood flood-color="#b8b5ba" flood-opacity=".75"/><feComposite in2="blur-2" operator="in"/><feComposite in="SourceGraphic"/></filter><linearGradient id="Degradado_sin_nombre_2-29" x1="175.32" y1="133.82" x2="175.32" y2="146.49" gradientTransform="matrix(1, 0, 0, 1, 0, 0)" xlink:href="#Degradado_sin_nombre_2"/><filter id="drop-shadow-3" filterUnits="userSpaceOnUse"><feOffset dx="1.97" dy="2.95"/><feGaussianBlur result="blur-3" stdDeviation="2.95"/><feFlood flood-color="#b8b5ba" flood-opacity=".75"/><feComposite in2="blur-3" operator="in"/><feComposite in="SourceGraphic"/></filter><linearGradient id="Degradado_sin_nombre_2-30" x1="175.32" y1="158.62" x2="175.32" y2="171.3" gradientTransform="matrix(1, 0, 0, 1, 0, 0)" xlink:href="#Degradado_sin_nombre_2"/><filter id="drop-shadow-4" filterUnits="userSpaceOnUse"><feOffset dx="1.97" dy="2.95"/><feGaussianBlur result="blur-4" stdDeviation="2.95"/><feFlood flood-color="#b8b5ba" flood-opacity=".75"/><feComposite in2="blur-4" operator="in"/><feComposite in="SourceGraphic"/></filter><linearGradient id="Degradado_sin_nombre_2-31" x1="175.32" y1="183.53" x2="175.32" y2="196.21" gradientTransform="matrix(1, 0, 0, 1, 0, 0)" xlink:href="#Degradado_sin_nombre_2"/><linearGradient id="Degradado_sin_nombre_2-32" x1="175.16" y1="207.7" x2="175.16" y2="217.49" gradientTransform="matrix(1, 0, 0, 1, 0, 0)" xlink:href="#Degradado_sin_nombre_2"/></defs><g class="cls-77"><g id="Capa_2"><g id="Objects"><g><g><g class="cls-10"><path class="cls-27" d="M63.03,20.83h-.69c-2.02,0-3.04-2.45-1.61-3.88l.49-.49c.89-.89,.89-2.33,0-3.21l-1.83-1.83c-.89-.89-2.33-.89-3.21,0l-.49,.49c-1.43,1.43-3.88,.42-3.88-1.61v-.69c0-1.25-1.02-2.27-2.27-2.27h-2.59c-1.25,0-2.27,1.02-2.27,2.27v.69c0,2.02-2.45,3.04-3.88,1.61l-.49-.49c-.89-.89-2.33-.89-3.21,0l-1.83,1.83c-.89,.89-.89,2.33,0,3.21l.49,.49c1.43,1.43,.42,3.88-1.61,3.88h-.69c-1.25,0-2.27,1.02-2.27,2.27v2.59c0,1.25,1.02,2.27,2.27,2.27h.69c2.02,0,3.04,2.45,1.61,3.88l-.49,.49c-.89,.89-.89,2.33,0,3.21l1.83,1.83c.89,.89,2.33,.89,3.21,0l.49-.49c1.43-1.43,3.88-.42,3.88,1.61v.69c0,1.25,1.02,2.27,2.27,2.27h2.59c1.25,0,2.27-1.02,2.27-2.27v-.69c0-2.02,2.45-3.04,3.88-1.61l.49,.49c.89,.89,2.33,.89,3.21,0l1.83-1.83c.89-.89,.89-2.33,0-3.21l-.49-.49c-1.43-1.43-.42-3.88,1.61-3.88h.69c1.25,0,2.27-1.02,2.27-2.27v-2.59c0-1.25-1.02-2.27-2.27-2.27Zm-14.78,9.64c-3.36,0-6.08-2.72-6.08-6.08s2.72-6.08,6.08-6.08,6.08,2.72,6.08,6.08-2.72,6.08-6.08,6.08Z"/></g><g class="cls-21"><path class="cls-33" d="M370.53,21.33h-.69c-2.02,0-3.04-2.45-1.61-3.88l.49-.49c.89-.89,.89-2.33,0-3.21l-1.83-1.83c-.89-.89-2.33-.89-3.21,0l-.49,.49c-1.43,1.43-3.88,.42-3.88-1.61v-.69c0-1.25-1.02-2.27-2.27-2.27h-2.59c-1.25,0-2.27,1.02-2.27,2.27v.69c0,2.02-2.45,3.04-3.88,1.61l-.49-.49c-.89-.89-2.33-.89-3.21,0l-1.83,1.83c-.89,.89-.89,2.33,0,3.21l.49,.49c1.43,1.43,.42,3.88-1.61,3.88h-.69c-1.25,0-2.27,1.02-2.27,2.27v2.59c0,1.25,1.02,2.27,2.27,2.27h.69c2.02,0,3.04,2.45,1.61,3.88l-.49,.49c-.89,.89-.89,2.33,0,3.21l1.83,1.83c.89,.89,2.33,.89,3.21,0l.49-.49c1.43-1.43,3.88-.42,3.88,1.61v.69c0,1.25,1.02,2.27,2.27,2.27h2.59c1.25,0,2.27-1.02,2.27-2.27v-.69c0-2.02,2.45-3.04,3.88-1.61l.49,.49c.89,.89,2.33,.89,3.21,0l1.83-1.83c.89-.89,.89-2.33,0-3.21l-.49-.49c-1.43-1.43-.42-3.88,1.61-3.88h.69c1.25,0,2.27-1.02,2.27-2.27v-2.59c0-1.25-1.02-2.27-2.27-2.27Zm-14.78,9.64c-3.36,0-6.08-2.72-6.08-6.08s2.72-6.08,6.08-6.08,6.08,2.72,6.08,6.08-2.72,6.08-6.08,6.08Z"/></g><g><rect class="cls-19" x="370.32" y="183.71" width="6.97" height="5.76"/><rect class="cls-19" x="370.32" y="191.44" width="6.97" height="5.76"/><rect class="cls-19" x="370.32" y="199.16" width="6.97" height="5.76"/><rect class="cls-19" x="370.32" y="206.89" width="6.97" height="5.76"/><rect class="cls-19" x="370.32" y="214.61" width="6.97" height="5.76"/></g><g><rect class="cls-12" x="31.93" y="174.04" width="6.97" height="5.76"/><rect class="cls-12" x="31.93" y="181.76" width="6.97" height="5.76"/><rect class="cls-12" x="31.93" y="189.49" width="6.97" height="5.76"/><rect class="cls-12" x="31.93" y="197.21" width="6.97" height="5.76"/><rect class="cls-12" x="31.93" y="204.94" width="6.97" height="5.76"/></g><g><rect class="cls-12" x="137.85" y="8.37" width="6.97" height="5.76" transform="translate(130.09 152.58) rotate(-90)"/><rect class="cls-12" x="145.58" y="8.37" width="6.97" height="5.76" transform="translate(137.81 160.31) rotate(-90)"/><rect class="cls-12" x="153.3" y="8.37" width="6.97" height="5.76" transform="translate(145.54 168.03) rotate(-90)"/><rect class="cls-12" x="161.03" y="8.37" width="6.97" height="5.76" transform="translate(153.26 175.76) rotate(-90)"/><rect class="cls-12" x="168.75" y="8.37" width="6.97" height="5.76" transform="translate(160.99 183.48) rotate(-90)"/></g></g><g><ellipse class="cls-20" cx="314.27" cy="233.44" rx="73.52" ry="9.61"/><g><path class="cls-2" d="M357.28,58.75h22.77c4.13,0,7.48,3.35,7.48,7.48v98.17c0,4.13-3.35,7.48-7.48,7.48h-22.53"/><g><g><path class="cls-69" d="M274.66,22.8h73.76c5.27,0,9.55,4.28,9.55,9.55V209.01c0,5.07-4.12,9.19-9.19,9.19h-74.48c-5.07,0-9.19-4.12-9.19-9.19V32.36c0-5.27,4.28-9.55,9.55-9.55Z"/><g><path class="cls-27" d="M277.04,214.45c-4.77,0-8.66-3.88-8.66-8.66V34.25c0-4.78,3.88-8.66,8.66-8.66h12.85v3.74c0,1.67,1.36,3.03,3.03,3.03h37.24c1.67,0,3.03-1.36,3.03-3.03v-3.74h12.85c4.77,0,8.66,3.89,8.66,8.66V205.79c0,4.78-3.88,8.66-8.66,8.66h-69Z"/><path class="cls-71" d="M354.7,112.24V34.25c0-4.78-3.88-8.66-8.66-8.66h-12.85v3.74c0,1.67-1.36,3.03-3.03,3.03h-37.24c-1.67,0-3.03-1.36-3.03-3.03v-3.74h-12.85c-4.77,0-8.66,3.89-8.66,8.66V112.24h86.32Z"/></g></g><path class="cls-11" d="M348.41,22.8h-71.83l81.38,175.35V32.36c0-5.28-4.28-9.55-9.55-9.55Z"/></g><g><circle class="cls-32" cx="356.05" cy="171.71" r="3.27"/><path class="cls-26" d="M357.53,171.71c0,.82-.66,1.48-1.48,1.48s-1.48-.66-1.48-1.48,.66-1.48,1.48-1.48,1.48,.66,1.48,1.48Z"/></g><g><g><g><path class="cls-24" d="M345.92,40.35h-.16c-.46,0-.69-.56-.36-.88l.11-.11c.2-.2,.2-.53,0-.73l-.42-.42c-.2-.2-.53-.2-.73,0l-.11,.11c-.32,.32-.88,.09-.88-.36v-.16c0-.28-.23-.52-.52-.52h-.59c-.28,0-.52,.23-.52,.52v.16c0,.46-.56,.69-.88,.36l-.11-.11c-.2-.2-.53-.2-.73,0l-.42,.42c-.2,.2-.2,.53,0,.73l.11,.11c.32,.32,.09,.88-.36,.88h-.16c-.28,0-.52,.23-.52,.52v.59c0,.28,.23,.52,.52,.52h.16c.46,0,.69,.56,.36,.88l-.11,.11c-.2,.2-.2,.53,0,.73l.42,.42c.2,.2,.53,.2,.73,0l.11-.11c.32-.32,.88-.09,.88,.36v.16c0,.28,.23,.52,.52,.52h.59c.28,0,.52-.23,.52-.52v-.16c0-.46,.56-.69,.88-.36l.11,.11c.2,.2,.53,.2,.73,0l.42-.42c.2-.2,.2-.53,0-.73l-.11-.11c-.32-.32-.09-.88,.36-.88h.16c.28,0,.52-.23,.52-.52v-.59c0-.28-.23-.52-.52-.52Zm-3.35,2.19c-.76,0-1.38-.62-1.38-1.38s.62-1.38,1.38-1.38,1.38,.62,1.38,1.38-.62,1.38-1.38,1.38Z"/><g><rect class="cls-24" x="274.54" y="36.91" width="9.2" height="1.35"/><rect class="cls-24" x="274.54" y="39.79" width="9.2" height="1.35"/><rect class="cls-24" x="274.54" y="42.68" width="9.2" height="1.35"/></g></g><g><rect class="cls-27" x="277.44" y="51.99" width="71.55" height="15" rx="7.5" ry="7.5"/><g><path class="cls-70" d="M346.55,59.49c0,2.85-2.31,5.16-5.16,5.16s-5.16-2.31-5.16-5.16,2.31-5.16,5.16-5.16,5.16,2.31,5.16,5.16Z"/><path class="cls-27" d="M344.06,61.41l-1.24-1.24c.23-.36,.37-.78,.37-1.23,0-1.25-1.02-2.28-2.28-2.28s-2.28,1.02-2.28,2.28,1.02,2.28,2.28,2.28c.47,0,.9-.14,1.27-.39l1.24,1.24c.09,.09,.21,.13,.32,.13s.23-.04,.32-.13c.18-.18,.18-.47,0-.65Zm-4.51-2.48c0-.75,.61-1.36,1.36-1.36s1.36,.61,1.36,1.36-.61,1.36-1.36,1.36-1.36-.61-1.36-1.36Z"/></g><text class="cls-75" transform="translate(285.41 60.62)"><tspan x="0" y="0">S</tspan><tspan class="cls-23" x="2.3" y="0">e</tspan><tspan x="4.52" y="0">a</tspan><tspan class="cls-22" x="6.74" y="0">r</tspan><tspan class="cls-7" x="8.24" y="0">c</tspan><tspan class="cls-65" x="10.35" y="0">h</tspan></text></g><g><g><path class="cls-27" d="M287.84,80.08c0,2.66-2.15,4.81-4.81,4.81s-4.81-2.15-4.81-4.81,2.15-4.81,4.81-4.81,4.81,2.15,4.81,4.81Z"/><rect class="cls-27" x="291.67" y="75.5" width="48.47" height="3.58"/><rect class="cls-27" x="291.67" y="81.09" width="48.47" height="3.58"/><path class="cls-27" d="M344.93,84.19l3.86-3.86c.27-.27,.27-.7,0-.96l-3.86-3.86c-.27-.27-.7-.27-.96,0-.13,.13-.2,.31-.2,.48s.07,.35,.2,.48l3.37,3.38-3.37,3.37c-.27,.27-.27,.7,0,.96,.27,.27,.7,.27,.96,0Z"/></g><g class="cls-67"><circle class="cls-27" cx="283.03" cy="95.64" r="4.81"/><rect class="cls-27" x="291.67" y="91.06" width="48.47" height="3.58"/><rect class="cls-27" x="291.67" y="96.65" width="48.47" height="3.58"/></g></g></g><g><g><g><path class="cls-33" d="M343.1,171.82c0,1.88-1.52,3.4-3.4,3.4s-3.4-1.52-3.4-3.4,1.52-3.4,3.4-3.4,3.4,1.52,3.4,3.4Z"/><path class="cls-33" d="M343.1,181.62c0,1.88-1.52,3.4-3.4,3.4s-3.4-1.52-3.4-3.4,1.52-3.4,3.4-3.4,3.4,1.52,3.4,3.4Z"/><path class="cls-27" d="M341.15,172.18h-1.08v1.06h-.8v-1.06h-1.08v-.76h1.08v-1.06h.8v1.06h1.08v.76Z"/><path class="cls-27" d="M338.45,181.07h2.56v1.13h-2.56v-1.13Z"/></g><g class="cls-6"><rect class="cls-33" x="278.96" y="167.75" width="15.96" height="17.18" rx="3.41" ry="3.41"/><g class="cls-8"><path class="cls-27" d="M276.43,183.49l4.81-4.74c.45-.44,1.17-.43,1.6,.03l2.36,2.52,4.26-5.66c.44-.59,1.31-.63,1.81-.08l8.76,9.68h-23.81l.22-1.75Z"/><path class="cls-27" d="M284.32,172.42c0,1.03-.83,1.86-1.86,1.86s-1.86-.83-1.86-1.86,.83-1.86,1.86-1.86,1.86,.83,1.86,1.86Z"/></g></g><g><g class="cls-21"><text class="cls-34" transform="translate(299.38 184.09)"><tspan class="cls-74" x="0" y="0">$</tspan><tspan x="3.88" y="0">99</tspan></text></g><rect class="cls-33" x="299.38" y="169.24" width="29.09" height="3.39"/><rect class="cls-19" x="299.38" y="174.78" width="15.27" height="1.58"/></g></g><g><g><path class="cls-33" d="M343.1,147.95c0,1.88-1.52,3.4-3.4,3.4s-3.4-1.52-3.4-3.4,1.52-3.4,3.4-3.4,3.4,1.52,3.4,3.4Z"/><path class="cls-33" d="M343.1,157.75c0,1.88-1.52,3.4-3.4,3.4s-3.4-1.52-3.4-3.4,1.52-3.4,3.4-3.4,3.4,1.52,3.4,3.4Z"/><path class="cls-27" d="M341.15,148.31h-1.08v1.06h-.8v-1.06h-1.08v-.76h1.08v-1.06h.8v1.06h1.08v.76Z"/><path class="cls-27" d="M338.45,157.2h2.56v1.13h-2.56v-1.13Z"/></g><g class="cls-55"><rect class="cls-33" x="278.96" y="143.88" width="15.96" height="17.18" rx="3.41" ry="3.41"/><g class="cls-8"><path class="cls-27" d="M276.43,159.62l4.81-4.74c.45-.44,1.17-.43,1.6,.03l2.36,2.52,4.26-5.66c.44-.59,1.31-.63,1.81-.08l8.76,9.68h-23.81l.22-1.75Z"/><path class="cls-27" d="M284.32,148.55c0,1.03-.83,1.86-1.86,1.86s-1.86-.83-1.86-1.86,.83-1.86,1.86-1.86,1.86,.83,1.86,1.86Z"/></g></g><g><g class="cls-21"><text class="cls-34" transform="translate(299.38 160.22)"><tspan class="cls-74" x="0" y="0">$</tspan><tspan x="3.88" y="0">99</tspan></text></g><rect class="cls-33" x="299.38" y="145.37" width="29.09" height="3.39"/><rect class="cls-19" x="299.38" y="150.91" width="15.27" height="1.58"/></g></g><g><g><path class="cls-33" d="M343.1,124.08c0,1.88-1.52,3.4-3.4,3.4s-3.4-1.52-3.4-3.4,1.52-3.4,3.4-3.4,3.4,1.52,3.4,3.4Z"/><path class="cls-33" d="M343.1,133.88c0,1.88-1.52,3.4-3.4,3.4s-3.4-1.52-3.4-3.4,1.52-3.4,3.4-3.4,3.4,1.52,3.4,3.4Z"/><path class="cls-27" d="M341.15,124.44h-1.08v1.06h-.8v-1.06h-1.08v-.76h1.08v-1.06h.8v1.06h1.08v.76Z"/><path class="cls-27" d="M338.45,133.33h2.56v1.13h-2.56v-1.13Z"/></g><g class="cls-58"><rect class="cls-33" x="278.96" y="120.01" width="15.96" height="17.18" rx="3.41" ry="3.41"/><g class="cls-8"><path class="cls-27" d="M276.43,135.74l4.81-4.74c.45-.44,1.17-.43,1.6,.03l2.36,2.52,4.26-5.66c.44-.59,1.31-.63,1.81-.08l8.76,9.68h-23.81l.22-1.75Z"/><path class="cls-27" d="M284.32,124.68c0,1.03-.83,1.86-1.86,1.86s-1.86-.83-1.86-1.86,.83-1.86,1.86-1.86,1.86,.83,1.86,1.86Z"/></g></g><g><g class="cls-21"><text class="cls-34" transform="translate(299.38 136.34)"><tspan class="cls-74" x="0" y="0">$</tspan><tspan x="3.88" y="0">99</tspan></text></g><rect class="cls-33" x="299.38" y="121.5" width="29.09" height="3.39"/><rect class="cls-19" x="299.38" y="127.04" width="15.27" height="1.58"/></g></g></g><g><g><path class="cls-44" d="M314.71,198.66c-1.37-1.37-3.58-1.37-4.95,0-1.37,1.37-1.37,3.58,0,4.95l2.48,2.47,2.47-2.47c1.37-1.37,1.37-3.58,0-4.95Zm-2.54,3.86c-.85,0-1.54-.69-1.54-1.54s.69-1.54,1.54-1.54,1.54,.69,1.54,1.54-.69,1.54-1.54,1.54Z"/><path class="cls-45" d="M300.64,204.65l-1.81-1.81c.34-.52,.53-1.13,.53-1.8,0-1.83-1.49-3.31-3.31-3.31s-3.31,1.49-3.31,3.31,1.49,3.31,3.31,3.31c.68,0,1.32-.21,1.84-.56l1.8,1.8c.13,.13,.3,.2,.47,.2s.34-.06,.47-.2c.26-.26,.26-.68,0-.94Zm-6.56-3.61c0-1.09,.89-1.98,1.98-1.98s1.98,.89,1.98,1.98-.89,1.98-1.98,1.98-1.98-.89-1.98-1.98Z"/><g><path class="cls-42" d="M275.29,201.14h0c-.17-.29-.07-.65,.22-.82l4.24-2.45c.19-.11,.43-.11,.62,0l4.18,2.41c.29,.17,.39,.53,.22,.82h0c-.17,.29-.53,.39-.82,.22l-3.58-2.07c-.19-.11-.43-.11-.62,0l-3.64,2.1c-.29,.17-.65,.07-.82-.22Z"/><path class="cls-46" d="M276.89,202.38v2.79c0,.3,.24,.55,.55,.55h5.24c.3,0,.55-.24,.55-.55v-2.79c0-.19-.1-.37-.27-.47l-2.62-1.51c-.17-.1-.38-.1-.55,0l-2.62,1.51c-.17,.1-.27,.28-.27,.47Z"/></g><g><path class="cls-40" d="M327.37,206.12c.52,0,.94-.4,.98-.92h-1.96c.04,.51,.46,.92,.98,.92Z"/><path class="cls-43" d="M331.01,204.07l-.85-1.28v-1.65c0-1.36-.99-2.48-2.29-2.7v-.69c0-.28-.23-.51-.51-.51s-.51,.23-.51,.51v.72c-1.23,.27-2.16,1.36-2.16,2.67v1.44l-.99,1.48c-.17,.26,.01,.61,.32,.61h6.66c.31,0,.5-.35,.32-.61Z"/></g><g><path class="cls-39" d="M342.74,203.92c-.5,0-.91,.41-.91,.91s.41,.91,.91,.91,.91-.41,.91-.91-.41-.91-.91-.91Z"/><path class="cls-41" d="M346.25,203.92c-.5,0-.91,.41-.91,.91s.41,.91,.91,.91,.91-.41,.91-.91-.41-.91-.91-.91Z"/><path class="cls-108" d="M348.44,199.25c-.09-.14-.25-.22-.42-.22h-6.76l-.45-1.15c-.08-.2-.26-.32-.47-.32h-.85c-.28,0-.51,.23-.51,.51h0c0,.28,.23,.51,.51,.51h.5l1.68,4.33c.08,.2,.26,.32,.47,.32h4.62c.21,0,.4-.13,.47-.32l1.26-3.18c.06-.16,.04-.33-.05-.47Z"/></g></g><line class="cls-3" x1="276.5" y1="191.9" x2="346.83" y2="191.9"/></g></g></g></g><g><path class="cls-2" d="M235.4,55.06V14.25c0-2.88,2.26-6.23,6.39-6.23h61.06c4.13,0,7.48,3.35,7.48,7.48v7.94"/><g><path class="cls-32" d="M313.63,23.33c0,1.81-1.46,3.27-3.27,3.27s-3.27-1.46-3.27-3.27,1.46-3.27,3.27-3.27,3.27,1.46,3.27,3.27Z"/><path class="cls-26" d="M311.84,23.33c0,.82-.66,1.48-1.48,1.48s-1.48-.66-1.48-1.48,.66-1.48,1.48-1.48,1.48,.66,1.48,1.48Z"/></g></g><g><g><g><path class="cls-72" d="M55.65,22.8h73.76c5.27,0,9.55,4.28,9.55,9.55V209.01c0,5.07-4.12,9.19-9.19,9.19H55.29c-5.07,0-9.19-4.12-9.19-9.19V32.36c0-5.27,4.28-9.55,9.55-9.55Z"/><g><path class="cls-27" d="M49.37,39.78V205.79c0,4.78,3.88,8.66,8.66,8.66H127.03c4.77,0,8.66-3.88,8.66-8.66V39.78H49.37Z"/><path class="cls-54" d="M135.69,128.27V34.25c0-4.78-3.88-8.66-8.66-8.66h-12.85v3.74c0,1.67-1.36,3.03-3.03,3.03h-37.24c-1.67,0-3.03-1.36-3.03-3.03v-3.74h-12.85c-4.77,0-8.66,3.89-8.66,8.66v94.02h86.32Z"/><g><g><path class="cls-27" d="M119.17,69.41h-51.9c-3.8,0-6.89-3.08-6.89-6.89h0c0-3.8,3.08-6.89,6.89-6.89h51.9c3.8,0,6.89,3.08,6.89,6.89h0c0,3.8-3.08,6.89-6.89,6.89Z"/><g><path class="cls-109" d="M123.81,62.53c0,2.62-2.12,4.74-4.74,4.74s-4.74-2.12-4.74-4.74,2.12-4.74,4.74-4.74,4.74,2.12,4.74,4.74Z"/><path class="cls-27" d="M121.53,64.29l-1.14-1.14c.21-.33,.34-.72,.34-1.13,0-1.15-.94-2.09-2.09-2.09s-2.09,.94-2.09,2.09,.94,2.09,2.09,2.09c.43,0,.83-.13,1.16-.35l1.14,1.14c.08,.08,.19,.12,.3,.12s.22-.04,.3-.12c.16-.16,.16-.43,0-.59Zm-4.14-2.28c0-.69,.56-1.25,1.25-1.25s1.25,.56,1.25,1.25-.56,1.25-1.25,1.25-1.25-.56-1.25-1.25Z"/></g><text class="cls-76" transform="translate(67.7 63.57)"><tspan x="0" y="0">S</tspan><tspan class="cls-36" x="2.11" y="0">e</tspan><tspan x="4.15" y="0">a</tspan><tspan class="cls-78" x="6.19" y="0">r</tspan><tspan class="cls-5" x="7.56" y="0">c</tspan><tspan class="cls-111" x="9.5" y="0">h</tspan></text></g><g><g><g><g class="cls-57"><rect class="cls-27" x="63.54" y="77.6" width="15.96" height="17.18" rx="3.41" ry="3.41"/><g class="cls-68"><path class="cls-50" d="M61.01,93.34l4.81-4.74c.45-.44,1.17-.43,1.6,.03l2.36,2.52,4.26-5.66c.44-.59,1.31-.63,1.81-.08l8.76,9.68h-23.81l.22-1.75Z"/><path class="cls-51" d="M68.9,82.27c0,1.03-.83,1.86-1.86,1.86s-1.86-.83-1.86-1.86,.83-1.86,1.86-1.86,1.86,.83,1.86,1.86Z"/></g></g><g class="cls-9"><rect class="cls-27" x="64.03" y="96.32" width="15.27" height="1.58"/></g></g><g><g class="cls-56"><rect class="cls-27" x="84.24" y="77.6" width="15.96" height="17.18" rx="3.41" ry="3.41"/><g class="cls-68"><path class="cls-52" d="M81.71,93.34l4.81-4.74c.45-.44,1.17-.43,1.6,.03l2.36,2.52,4.26-5.66c.44-.59,1.31-.63,1.81-.08l8.76,9.68h-23.81l.22-1.75Z"/><path class="cls-53" d="M89.6,82.27c0,1.03-.83,1.86-1.86,1.86s-1.86-.83-1.86-1.86,.83-1.86,1.86-1.86,1.86,.83,1.86,1.86Z"/></g></g><g class="cls-9"><rect class="cls-27" x="84.73" y="96.32" width="15.27" height="1.58"/></g></g><g><g class="cls-62"><rect class="cls-27" x="104.94" y="77.6" width="15.96" height="17.18" rx="3.41" ry="3.41"/><g class="cls-68"><path class="cls-47" d="M102.41,93.34l4.81-4.74c.45-.44,1.17-.43,1.6,.03l2.36,2.52,4.26-5.66c.44-.59,1.31-.63,1.81-.08l8.76,9.68h-23.81l.22-1.75Z"/><path class="cls-48" d="M110.3,82.27c0,1.03-.83,1.86-1.86,1.86s-1.86-.83-1.86-1.86,.83-1.86,1.86-1.86,1.86,.83,1.86,1.86Z"/></g></g><g class="cls-9"><rect class="cls-27" x="105.43" y="96.32" width="15.27" height="1.58"/></g></g><g><g class="cls-61"><rect class="cls-27" x="63.54" y="101.55" width="15.96" height="17.18" rx="3.41" ry="3.41"/><g class="cls-68"><path class="cls-49" d="M61.01,117.29l4.81-4.74c.45-.44,1.17-.43,1.6,.03l2.36,2.52,4.26-5.66c.44-.59,1.31-.63,1.81-.08l8.76,9.68h-23.81l.22-1.75Z"/><path class="cls-82" d="M68.9,106.23c0,1.03-.83,1.86-1.86,1.86s-1.86-.83-1.86-1.86,.83-1.86,1.86-1.86,1.86,.83,1.86,1.86Z"/></g></g><g class="cls-9"><rect class="cls-27" x="64.03" y="120.27" width="15.27" height="1.58"/></g></g><g><g class="cls-59"><rect class="cls-27" x="84.24" y="101.55" width="15.96" height="17.18" rx="3.41" ry="3.41"/><g class="cls-68"><path class="cls-81" d="M81.71,117.29l4.81-4.74c.45-.44,1.17-.43,1.6,.03l2.36,2.52,4.26-5.66c.44-.59,1.31-.63,1.81-.08l8.76,9.68h-23.81l.22-1.75Z"/><path class="cls-84" d="M89.6,106.23c0,1.03-.83,1.86-1.86,1.86s-1.86-.83-1.86-1.86,.83-1.86,1.86-1.86,1.86,.83,1.86,1.86Z"/></g></g><g class="cls-9"><rect class="cls-27" x="84.73" y="120.27" width="15.27" height="1.58"/></g></g><g><g class="cls-60"><rect class="cls-27" x="104.94" y="101.55" width="15.96" height="17.18" rx="3.41" ry="3.41"/><g class="cls-68"><path class="cls-83" d="M102.41,117.29l4.81-4.74c.45-.44,1.17-.43,1.6,.03l2.36,2.52,4.26-5.66c.44-.59,1.31-.63,1.81-.08l8.76,9.68h-23.81l.22-1.75Z"/><path class="cls-86" d="M110.3,106.23c0,1.03-.83,1.86-1.86,1.86s-1.86-.83-1.86-1.86,.83-1.86,1.86-1.86,1.86,.83,1.86,1.86Z"/></g></g><g class="cls-9"><rect class="cls-27" x="105.43" y="120.27" width="15.27" height="1.58"/></g></g></g><path class="cls-27" d="M128.03,104.33l3.86-3.86c.27-.27,.27-.7,0-.96l-3.86-3.86c-.27-.27-.7-.27-.96,0-.13,.13-.2,.31-.2,.48s.07,.35,.2,.48l3.37,3.37-3.37,3.37c-.27,.27-.27,.7,0,.96,.27,.27,.7,.27,.96,0Z"/><path class="cls-27" d="M57.68,104.33l-3.86-3.86c-.27-.27-.27-.7,0-.96l3.86-3.86c.27-.27,.7-.27,.96,0,.13,.13,.2,.31,.2,.48s-.07,.35-.2,.48l-3.37,3.37,3.37,3.37c.27,.27,.27,.7,0,.96-.27,.27-.7,.27-.96,0Z"/></g><g><path class="cls-24" d="M126.91,39.97h-.16c-.46,0-.69-.56-.36-.88l.11-.11c.2-.2,.2-.53,0-.73l-.42-.42c-.2-.2-.53-.2-.73,0l-.11,.11c-.32,.32-.88,.09-.88-.36v-.16c0-.28-.23-.52-.52-.52h-.59c-.28,0-.52,.23-.52,.52v.16c0,.46-.56,.69-.88,.36l-.11-.11c-.2-.2-.53-.2-.73,0l-.42,.42c-.2,.2-.2,.53,0,.73l.11,.11c.32,.32,.09,.88-.36,.88h-.16c-.28,0-.52,.23-.52,.52v.59c0,.28,.23,.52,.52,.52h.16c.46,0,.69,.56,.36,.88l-.11,.11c-.2,.2-.2,.53,0,.73l.42,.42c.2,.2,.53,.2,.73,0l.11-.11c.32-.32,.88-.09,.88,.36v.16c0,.28,.23,.52,.52,.52h.59c.28,0,.52-.23,.52-.52v-.16c0-.46,.56-.69,.88-.36l.11,.11c.2,.2,.53,.2,.73,0l.42-.42c.2-.2,.2-.53,0-.73l-.11-.11c-.32-.32-.09-.88,.36-.88h.16c.28,0,.52-.23,.52-.52v-.59c0-.28-.23-.52-.52-.52Zm-3.35,2.19c-.76,0-1.38-.62-1.38-1.38s.62-1.38,1.38-1.38,1.38,.62,1.38,1.38-.62,1.38-1.38,1.38Z"/><g><rect class="cls-24" x="55.53" y="36.91" width="9.2" height="1.35"/><rect class="cls-24" x="55.53" y="39.79" width="9.2" height="1.35"/><rect class="cls-24" x="55.53" y="42.68" width="9.2" height="1.35"/></g><g><path class="cls-27" d="M99.49,42.87c0,3.29-2.67,5.96-5.96,5.96s-5.96-2.67-5.96-5.96,2.67-5.96,5.96-5.96,5.96,2.67,5.96,5.96Z"/><g><path class="cls-110" d="M93.61,42.33c.66,0,1.2-.54,1.2-1.2s-.54-1.2-1.2-1.2-1.2,.54-1.2,1.2,.54,1.2,1.2,1.2Z"/><path class="cls-91" d="M96.11,44.46c-.43-.95-1.38-1.61-2.49-1.61s-2.06,.66-2.49,1.61c-.07,.16-.07,.35,0,.51,.43,.95,1.38,1.61,2.49,1.61s2.06-.66,2.49-1.61c.07-.16,.07-.35,0-.51Z"/></g></g></g></g><g><g><path class="cls-90" d="M52.92,174.2v11.57c0,2.1,1.76,3.8,3.93,3.8h71.81c2.17,0,3.93-1.7,3.93-3.8v-11.57c0-2.1-1.76-3.8-3.93-3.8H56.85c-2.17,0-3.93,1.7-3.93,3.8Z"/><g><g class="cls-21"><path class="cls-33" d="M68.84,142.15c0,2.66-2.15,4.81-4.81,4.81s-4.81-2.15-4.81-4.81,2.15-4.81,4.81-4.81,4.81,2.15,4.81,4.81Z"/><rect class="cls-19" x="72.67" y="137.57" width="48.47" height="3.58"/><rect class="cls-19" x="72.67" y="143.17" width="48.47" height="3.58"/><path class="cls-33" d="M125.93,146.27l3.86-3.86c.27-.27,.27-.7,0-.96l-3.86-3.86c-.27-.27-.7-.27-.96,0-.13,.13-.2,.31-.2,.48s.07,.35,.2,.48l3.37,3.37-3.37,3.37c-.27,.27-.27,.7,0,.96,.27,.27,.7,.27,.96,0Z"/></g><g class="cls-21"><path class="cls-33" d="M68.84,161.07c0,2.66-2.15,4.81-4.81,4.81s-4.81-2.15-4.81-4.81,2.15-4.81,4.81-4.81,4.81,2.15,4.81,4.81Z"/><rect class="cls-19" x="72.67" y="156.48" width="48.47" height="3.58"/><rect class="cls-19" x="72.67" y="162.08" width="48.47" height="3.58"/><path class="cls-33" d="M125.93,165.18l3.86-3.86c.27-.27,.27-.7,0-.96l-3.86-3.86c-.27-.27-.7-.27-.96,0-.13,.13-.2,.31-.2,.48s.07,.35,.2,.48l3.37,3.37-3.37,3.37c-.27,.27-.27,.7,0,.96,.27,.27,.7,.27,.96,0Z"/></g><g class="cls-15"><circle class="cls-27" cx="64.02" cy="179.98" r="4.81"/><rect class="cls-27" x="72.67" y="175.39" width="48.47" height="3.58"/><rect class="cls-27" x="72.67" y="180.99" width="48.47" height="3.58"/><path class="cls-27" d="M125.93,184.09l3.86-3.86c.27-.27,.27-.7,0-.96l-3.86-3.86c-.27-.27-.7-.27-.96,0-.13,.13-.2,.31-.2,.48s.07,.35,.2,.48l3.37,3.38-3.37,3.37c-.27,.27-.27,.7,0,.96,.27,.27,.7,.27,.96,0Z"/></g></g></g><g><path class="cls-93" d="M96.74,201.57c-1.37-1.37-3.58-1.37-4.95,0-1.37,1.37-1.37,3.58,0,4.95l2.48,2.47,2.48-2.47c1.37-1.37,1.37-3.58,0-4.95Zm-2.54,3.86c-.85,0-1.54-.69-1.54-1.54s.69-1.54,1.54-1.54,1.54,.69,1.54,1.54-.69,1.54-1.54,1.54Z"/><path class="cls-92" d="M82.67,207.57l-1.81-1.81c.34-.52,.53-1.13,.53-1.8,0-1.83-1.49-3.31-3.31-3.31s-3.31,1.49-3.31,3.31,1.49,3.31,3.31,3.31c.68,0,1.32-.21,1.84-.56l1.8,1.8c.13,.13,.3,.2,.47,.2s.34-.06,.47-.2c.26-.26,.26-.68,0-.94Zm-6.56-3.61c0-1.09,.89-1.98,1.98-1.98s1.98,.89,1.98,1.98-.89,1.98-1.98,1.98-1.98-.89-1.98-1.98Z"/><g><path class="cls-88" d="M57.32,204.05h0c-.17-.29-.07-.65,.22-.82l4.24-2.45c.19-.11,.43-.11,.62,0l4.18,2.41c.29,.17,.39,.53,.22,.82h0c-.17,.29-.53,.39-.82,.22l-3.58-2.07c-.19-.11-.43-.11-.62,0l-3.64,2.1c-.29,.17-.65,.07-.82-.22Z"/><path class="cls-94" d="M58.92,205.29v2.79c0,.3,.24,.55,.55,.55h5.24c.3,0,.55-.24,.55-.55v-2.79c0-.19-.1-.37-.27-.47l-2.62-1.51c-.17-.1-.38-.1-.55,0l-2.62,1.51c-.17,.1-.27,.28-.27,.47Z"/></g><g><path class="cls-89" d="M109.41,209.04c.52,0,.94-.4,.98-.92h-1.96c.04,.51,.46,.92,.98,.92Z"/><path class="cls-96" d="M113.04,206.98l-.85-1.28v-1.65c0-1.36-.99-2.48-2.29-2.7v-.69c0-.28-.23-.51-.51-.51s-.51,.23-.51,.51v.72c-1.23,.27-2.16,1.36-2.16,2.67v1.44l-.99,1.48c-.17,.26,.01,.61,.32,.61h6.66c.31,0,.5-.35,.32-.61Z"/></g><g><path class="cls-97" d="M124.78,206.84c-.5,0-.91,.41-.91,.91s.41,.91,.91,.91,.91-.41,.91-.91-.41-.91-.91-.91Z"/><path class="cls-101" d="M128.28,206.84c-.5,0-.91,.41-.91,.91s.41,.91,.91,.91,.91-.41,.91-.91-.41-.91-.91-.91Z"/><path class="cls-95" d="M130.47,202.17c-.09-.14-.25-.22-.42-.22h-6.76l-.45-1.15c-.08-.2-.26-.32-.47-.32h-.85c-.28,0-.51,.23-.51,.51h0c0,.28,.23,.51,.51,.51h.5l1.68,4.33c.08,.2,.26,.32,.47,.32h4.62c.21,0,.4-.13,.47-.32l1.26-3.18c.06-.16,.04-.33-.05-.47Z"/></g></g><line class="cls-3" x1="58.37" y1="195.1" x2="128.7" y2="195.1"/></g></g><path class="cls-14" d="M129.41,22.8H57.58l81.38,175.35V32.36c0-5.28-4.28-9.55-9.55-9.55Z"/></g><ellipse class="cls-18" cx="91.94" cy="232.79" rx="73.52" ry="9.61"/></g><g><g><path class="cls-2" d="M54.23,86.22h-20.08c-3.01,0-5.45,2.44-5.45,5.45v37.25"/><g><path class="cls-32" d="M57.92,86.22c0,1.81-1.46,3.27-3.27,3.27s-3.27-1.46-3.27-3.27,1.46-3.27,3.27-3.27,3.27,1.46,3.27,3.27Z"/><path class="cls-26" d="M56.13,86.22c0,.82-.66,1.48-1.48,1.48s-1.48-.66-1.48-1.48,.66-1.48,1.48-1.48,1.48,.66,1.48,1.48Z"/></g></g><g><g><g><rect class="cls-29" x="7.46" y="126.41" width="89.53" height="26.33" rx="5.05" ry="5.05"/><path class="cls-99" d="M25.74,126.41H9.44c-2.79,0-5.05,2.26-5.05,5.05v16.23c0,2.79,2.26,5.05,5.05,5.05H25.74v-26.33Z"/></g><rect class="cls-100" x="31.09" y="134.52" width="49.5" height="3.65"/><rect class="cls-19" x="31.09" y="140.23" width="49.5" height="3.65"/><path class="cls-104" d="M86.8,143.4l3.94-3.94c.27-.27,.27-.71,0-.98l-3.94-3.94c-.27-.27-.71-.27-.98,0-.14,.14-.2,.31-.2,.49s.07,.36,.2,.49l3.45,3.45-3.45,3.45c-.27,.27-.27,.71,0,.98,.27,.27,.71,.27,.98,0Z"/></g><g class="cls-63"><rect class="cls-27" x="8.64" y="131.89" width="12.31" height="13.25" rx="2.63" ry="2.63"/><g class="cls-68"><path class="cls-85" d="M6.69,144.03l3.71-3.66c.35-.34,.91-.33,1.24,.02l1.82,1.94,3.29-4.37c.34-.45,1.01-.48,1.39-.06l6.76,7.47H6.52l.17-1.35Z"/><path class="cls-87" d="M12.77,135.49c0,.79-.64,1.44-1.44,1.44s-1.44-.64-1.44-1.44,.64-1.44,1.44-1.44,1.44,.64,1.44,1.44Z"/></g></g></g></g></g><g><line class="cls-2" x1="201.83" y1="40.42" x2="201.83" y2="54.6"/><path class="cls-2" d="M92.72,23.6V6.89c0-3.55,2.88-6.43,6.43-6.43h94.51c4.52,0,8.18,3.66,8.18,8.18V27.03"/><g><path class="cls-32" d="M96.34,23.09c0,1.81-1.46,3.27-3.27,3.27s-3.27-1.46-3.27-3.27,1.46-3.27,3.27-3.27,3.27,1.46,3.27,3.27Z"/><path class="cls-26" d="M94.55,23.09c0,.82-.66,1.48-1.48,1.48s-1.48-.66-1.48-1.48,.66-1.48,1.48-1.48,1.48,.66,1.48,1.48Z"/></g><path class="cls-32" d="M210.65,32h-.4c-1.17,0-1.75-1.41-.93-2.23l.28-.28c.51-.51,.51-1.34,0-1.85l-1.06-1.06c-.51-.51-1.34-.51-1.85,0l-.28,.28c-.82,.82-2.23,.24-2.23-.93v-.4c0-.72-.59-1.31-1.31-1.31h-1.49c-.72,0-1.31,.59-1.31,1.31v.4c0,1.17-1.41,1.75-2.23,.93l-.28-.28c-.51-.51-1.34-.51-1.85,0l-1.06,1.06c-.51,.51-.51,1.34,0,1.85l.28,.28c.82,.82,.24,2.23-.93,2.23h-.4c-.72,0-1.31,.59-1.31,1.31v1.49c0,.72,.59,1.31,1.31,1.31h.4c1.17,0,1.75,1.41,.93,2.23l-.28,.28c-.51,.51-.51,1.34,0,1.85l1.06,1.06c.51,.51,1.34,.51,1.85,0l.28-.28c.82-.82,2.23-.24,2.23,.93v.4c0,.72,.59,1.31,1.31,1.31h1.49c.72,0,1.31-.59,1.31-1.31v-.4c0-1.17,1.41-1.75,2.23-.93l.28,.28c.51,.51,1.34,.51,1.85,0l1.06-1.06c.51-.51,.51-1.34,0-1.85l-.28-.28c-.82-.82-.24-2.23,.93-2.23h.4c.72,0,1.31-.59,1.31-1.31v-1.49c0-.72-.59-1.31-1.31-1.31Zm-8.52,5.55c-1.93,0-3.5-1.57-3.5-3.5s1.57-3.5,3.5-3.5,3.5,1.57,3.5,3.5-1.57,3.5-3.5,3.5Z"/></g><g><ellipse class="cls-17" cx="207.36" cy="283.26" rx="81.15" ry="10.61"/><g><path class="cls-38" d="M161.63,51.06h82.25c5.88,0,10.65,4.77,10.65,10.65v197.01c0,5.66-4.59,10.25-10.25,10.25h-83.06c-5.66,0-10.25-4.59-10.25-10.25V61.71c0-5.88,4.77-10.65,10.65-10.65Z"/><g><path class="cls-73" d="M164.29,264.78c-5.32,0-9.66-4.33-9.66-9.66V63.82c0-5.33,4.33-9.66,9.66-9.66h14.33v4.17c0,1.86,1.52,3.38,3.38,3.38h41.53c1.86,0,3.38-1.51,3.38-3.38v-4.17h14.33c5.32,0,9.66,4.33,9.66,9.66V255.12c0,5.33-4.33,9.66-9.66,9.66h-76.95Z"/><path class="cls-80" d="M250.89,116.16V63.82c0-5.33-4.33-9.66-9.66-9.66h-14.33v4.17c0,1.86-1.52,3.38-3.38,3.38h-41.53c-1.86,0-3.38-1.51-3.38-3.38v-4.17h-14.33c-5.32,0-9.66,4.33-9.66,9.66v52.34h96.27Z"/></g><path class="cls-13" d="M243.89,51.06h-80.11l90.76,195.55V61.71c0-5.88-4.77-10.65-10.65-10.65Z"/><g><g><path class="cls-24" d="M241.1,70.62h-.17c-.51,0-.77-.62-.41-.98l.12-.12c.22-.22,.22-.59,0-.81l-.46-.46c-.22-.22-.59-.22-.81,0l-.12,.12c-.36,.36-.98,.11-.98-.41v-.17c0-.32-.26-.57-.57-.57h-.66c-.32,0-.57,.26-.57,.57v.17c0,.51-.62,.77-.98,.41l-.12-.12c-.22-.22-.59-.22-.81,0l-.46,.46c-.22,.22-.22,.59,0,.81l.12,.12c.36,.36,.11,.98-.41,.98h-.17c-.32,0-.57,.26-.57,.57v.66c0,.32,.26,.57,.57,.57h.17c.51,0,.77,.62,.41,.98l-.12,.12c-.22,.22-.22,.59,0,.81l.46,.46c.22,.22,.59,.22,.81,0l.12-.12c.36-.36,.98-.11,.98,.41v.17c0,.32,.26,.57,.57,.57h.66c.32,0,.57-.26,.57-.57v-.17c0-.51,.62-.77,.98-.41l.12,.12c.22,.22,.59,.22,.81,0l.46-.46c.22-.22,.22-.59,0-.81l-.12-.12c-.36-.36-.11-.98,.41-.98h.17c.32,0,.57-.26,.57-.57v-.66c0-.32-.26-.57-.57-.57Zm-3.74,2.44c-.85,0-1.54-.69-1.54-1.54s.69-1.54,1.54-1.54,1.54,.69,1.54,1.54-.69,1.54-1.54,1.54Z"/><g><rect class="cls-24" x="161.5" y="66.78" width="10.26" height="1.51"/><rect class="cls-24" x="161.5" y="70" width="10.26" height="1.51"/><rect class="cls-24" x="161.5" y="73.22" width="10.26" height="1.51"/></g></g><g><circle class="cls-27" cx="202.65" cy="94.86" r="14.87" transform="translate(-10.1 25.57) rotate(-7.04)"/><g><path class="cls-79" d="M202.84,93.53c1.66,0,3-1.34,3-3s-1.34-3-3-3-3,1.34-3,3,1.34,3,3,3Z"/><path class="cls-98" d="M209.06,98.85c-1.07-2.37-3.45-4.02-6.22-4.02s-5.15,1.65-6.22,4.02c-.18,.41-.18,.88,0,1.28,1.07,2.37,3.45,4.02,6.22,4.02s5.15-1.65,6.22-4.02c.18-.41,.18-.88,0-1.28Z"/></g></g><g><g><path class="cls-102" d="M219.83,231.69h-33.17c-3.17,0-5.73-2.57-5.73-5.73h0c0-3.17,2.57-5.73,5.73-5.73h33.17c3.17,0,5.73,2.57,5.73,5.73h0c0,3.17-2.57,5.73-5.73,5.73Z"/><text class="cls-25" transform="translate(193.86 227.3)"><tspan x="0" y="0">Sign Up</tspan></text></g><g><path class="cls-19" d="M219.83,247.2h-33.17c-3.17,0-5.73-2.57-5.73-5.73h0c0-3.17,2.57-5.73,5.73-5.73h33.17c3.17,0,5.73,2.57,5.73,5.73h0c0,3.17-2.57,5.73-5.73,5.73Z"/><text class="cls-25" transform="translate(196.07 242.81)"><tspan class="cls-112" x="0" y="0">L</tspan><tspan x="2.6" y="0">og In</tspan></text></g><g><rect class="cls-30" x="166.03" y="131.04" width="73.64" height="18.91" rx="9.46" ry="9.46"/><text class="cls-35" transform="translate(187.05 141.42)"><tspan x="0" y="0">User na</tspan><tspan class="cls-66" x="21.58" y="0">m</tspan><tspan x="27.31" y="0">e</tspan></text><circle class="cls-103" cx="175.32" cy="140.15" r="6.34"/><g><path class="cls-24" d="M175.27,138.46c.87,0,1.57-.7,1.57-1.57s-.7-1.57-1.57-1.57-1.57,.7-1.57,1.57,.7,1.57,1.57,1.57Z"/><path class="cls-24" d="M178.52,141.24c-.56-1.24-1.8-2.1-3.25-2.1s-2.69,.86-3.25,2.1c-.1,.21-.1,.46,0,.67,.56,1.24,1.8,2.1,3.25,2.1s2.69-.86,3.25-2.1c.1-.21,.1-.46,0-.67Z"/></g></g><g><rect class="cls-31" x="166.03" y="155.95" width="73.64" height="18.91" rx="9.46" ry="9.46"/><text class="cls-35" transform="translate(187.05 166.68)"><tspan class="cls-16" x="0" y="0">P</tspan><tspan x="3.9" y="0">as</tspan><tspan class="cls-4" x="10.13" y="0">s</tspan><tspan class="cls-16" x="12.96" y="0">w</tspan><tspan x="17.97" y="0">o</tspan><tspan class="cls-64" x="21.53" y="0">r</tspan><tspan class="cls-37" x="23.82" y="0">d</tspan></text><path class="cls-105" d="M168.98,164.96c0-3.5,2.84-6.34,6.34-6.34s6.34,2.84,6.34,6.34-2.84,6.34-6.34,6.34-6.34-2.84-6.34-6.34Z"/><g><path class="cls-27" d="M174.61,162.78v-.09c0-.47,.38-.85,.85-.85s.85,.38,.85,.85v.09h.9v-.09c0-.97-.79-1.75-1.75-1.75s-1.75,.79-1.75,1.75v.09h.9Z"/><path class="cls-27" d="M177.41,163.29h-3.94c-.45,0-.82,.37-.82,.82v2.81c0,.45,.37,.82,.82,.82h3.94c.45,0,.82-.37,.82-.82v-2.81c0-.45-.37-.82-.82-.82Zm-1.57,2.4v.93h-.7v-.96c-.17-.12-.29-.31-.29-.53,0-.36,.3-.66,.66-.66s.66,.3,.66,.66c0,.24-.14,.44-.33,.56Z"/></g></g><g><path class="cls-28" d="M230.22,199.77h-54.73c-5.22,0-9.46-4.23-9.46-9.46h0c0-5.22,4.23-9.46,9.46-9.46h54.73c5.22,0,9.46,4.23,9.46,9.46h0c0,5.22-4.23,9.46-9.46,9.46Z"/><text class="cls-35" transform="translate(187.05 191.6)"><tspan x="0" y="0">Email</tspan></text><circle class="cls-107" cx="175.32" cy="189.87" r="6.34"/><g><path class="cls-27" d="M174.61,187.69v-.09c0-.47,.38-.85,.85-.85s.85,.38,.85,.85v.09h.9v-.09c0-.97-.79-1.75-1.75-1.75s-1.75,.79-1.75,1.75v.09h.9Z"/><path class="cls-27" d="M177.41,188.2h-3.94c-.45,0-.82,.37-.82,.82v2.81c0,.45,.37,.82,.82,.82h3.94c.45,0,.82-.37,.82-.82v-2.81c0-.45-.37-.82-.82-.82Zm-1.57,2.4v.93h-.7v-.96c-.17-.12-.29-.31-.29-.53,0-.36,.3-.66,.66-.66s.66,.3,.66,.66c0,.24-.14,.44-.33,.56Z"/></g></g><g><rect class="cls-19" x="186.65" y="207.71" width="50.79" height="3.74"/><g><path class="cls-106" d="M178,212.25h-5.69c-1.41,0-2.56-1.15-2.56-2.56h0c0-1.41,1.15-2.56,2.56-2.56h5.69c1.41,0,2.56,1.15,2.56,2.56h0c0,1.41-1.15,2.56-2.56,2.56Z"/><path class="cls-27" d="M179.21,209.61c0,.81-.66,1.47-1.47,1.47s-1.47-.66-1.47-1.47,.66-1.47,1.47-1.47,1.47,.66,1.47,1.47Z"/></g></g></g></g></g></g></g></g></g></g></svg>