<svg xmlns="http://www.w3.org/2000/svg" viewBox="0 0 579 499.86"><defs><style>.cls-1{fill:#e52a1b;}.cls-2{fill:#fff;}.cls-3,.cls-4{fill:none;stroke:#000;stroke-miterlimit:10;}.cls-3{stroke-dasharray:6.05 6.05;}</style></defs><g id="Capa_2" data-name="Capa 2"><g id="Capa_2-2" data-name="Capa 2"><rect class="cls-1" y="9.36" width="147" height="72" rx="15"/><rect class="cls-1" x="381" y="17.86" width="147" height="54" rx="10"/><rect class="cls-2" x="201.5" y="286.86" width="147" height="54" rx="10"/><rect class="cls-2" x="201.5" y="158" width="147" height="54" rx="10"/><rect x="381.5" y="286.86" width="147" height="54" rx="10"/><rect class="cls-1" x="381.5" y="378.86" width="147" height="54" rx="10"/><rect class="cls-2" x="381.5" y="445.86" width="147" height="54" rx="10"/><rect class="cls-3" x="238.1" y="11.02" width="70.8" height="70.8" rx="10" transform="translate(47.28 206.99) rotate(-45)"/><rect class="cls-3" x="420.1" y="149.6" width="70.8" height="70.8" rx="10" transform="translate(2.6 376.27) rotate(-45)"/><line class="cls-4" x1="147" y1="46.36" x2="228" y2="46.36"/><line class="cls-4" x1="319" y1="46.36" x2="382" y2="46.36"/><line class="cls-4" x1="455" y1="72.36" x2="455" y2="139.36"/><line class="cls-4" x1="455" y1="233.36" x2="455" y2="289.36"/><line class="cls-4" x1="349" y1="185" x2="408" y2="185"/><line class="cls-4" x1="501" y1="185" x2="579" y2="185"/><line class="cls-4" x1="275" y1="92.36" x2="275.75" y2="159.11"/><line class="cls-4" x1="275" y1="212.36" x2="275" y2="287.36"/><path class="cls-4" d="M273.5,340.86v50a15,15,0,0,0,15,15h93"/><path class="cls-4" d="M381,472.86H288.5a15,15,0,0,1-15-15v-78.5"/></g></g></svg>