<?xml version="1.0" encoding="utf-8"?>
<!-- Generator: Adobe Illustrator 25.4.1, SVG Export Plug-In . SVG Version: 6.00 Build 0)  -->
<svg version="1.1" id="Capa_1" xmlns="http://www.w3.org/2000/svg" xmlns:xlink="http://www.w3.org/1999/xlink" x="0px" y="0px"
	 viewBox="0 0 2500 2500" style="enable-background:new 0 0 2500 2500;" xml:space="preserve">
<style type="text/css">
	.st0{fill-rule:evenodd;clip-rule:evenodd;fill:#CC2229;}
	.st1{fill-rule:evenodd;clip-rule:evenodd;fill:#FFFFFF;}
</style>
<path class="st0" d="M2195.4,845.9c-51.9-124.5-125.3-235.3-220.2-331.1c-94.1-95.7-203.4-169.9-325.5-222.6
	c-126.8-54.3-260.9-81.4-399.7-81.4c-139.6,0-272.1,27.1-398.9,81.4c-122.9,52.7-232.2,126.8-326.3,222.6
	c-94.9,95.7-168.3,206.6-220.2,331.1c-53.4,128.5-80.6,263.3-80.6,404.5c0,140.4,27.1,275.3,80.6,403.7
	c51.9,124.5,125.3,235.3,220.2,331.1c94.1,95.7,203.4,169.9,326.3,222.6c126.8,54.3,259.3,81.4,398.9,81.4
	c138.8,0,272.9-27.1,399.7-81.4c122.1-52.7,231.4-126.9,325.5-222.6c94.9-95.7,168.3-206.6,220.2-331.1
	c53.4-128.4,80.6-263.3,80.6-403.7C2276,1109.2,2248.9,974.4,2195.4,845.9L2195.4,845.9z M1689.6,1119.6
	c47.1,0,88.6,16.8,122.9,51.1c33.5,34.3,50.3,75.8,50.3,123.7c0,47.9-16.7,89.4-50.3,122.9c-34.3,34.3-75.8,51.9-122.9,51.9
	c-47.1,0-87.8-17.6-121.3-51.9c-34.3-33.5-51.1-75-51.1-122.9c0-47.9,16.8-89.4,51.1-123.7
	C1601.8,1136.3,1642.5,1119.6,1689.6,1119.6z M446.6,1097.2c41.5-43.1,90.9-63.8,150.8-63c47.9-0.8,91.7,14.4,130,44.7
	c37.5,29.5,62.2,67.8,75,114.1h-87c-11.2-22.3-27.1-41.5-47.1-55.1c-22.3-14.4-45.5-21.5-71-21.5c-36.7,0-67.8,13.6-93.3,39.1
	c-26.3,26.3-39.1,57.4-38.3,94.1c-0.8,36.7,12,67.8,38.3,94.1c25.5,25.5,56.7,39.1,93.3,39.1c25.5,0,48.7-7.2,71-20.8
	c20-14.2,36.1-33.1,47.1-55h87c-12.8,46.3-37.5,83.8-75,114.1c-38.3,29.5-82.2,43.9-130,43.9c-59.8,0-109.3-20.8-150.8-62.2
	c-42.3-42.3-63-94.1-63-153.2C383.6,1189.8,404.3,1139.5,446.6,1097.2L446.6,1097.2z M1006.7,1162.6c22.3-29.5,61.4-44.7,117.3-43.9
	c35.9-0.8,67.8,6.4,96.5,21.5c27.1,14.4,41.5,42.3,41.5,82.2v244.1h-83v-34.3c-25.5,22.3-61.4,33.5-106.9,34.3
	c-27.9-0.8-51.1-8.8-67.8-23.1c-19.2-17.6-28.7-41.5-27.9-71c-0.8-42.3,14.4-71.8,45.5-90.2c18.4-10.4,42.3-17.6,71.8-21.5
	l63.8-10.4c12.8-5.6,19.1-14.3,19.1-25.5c-0.8-13.6-4.8-23.1-14.4-27.9c-9.6-5.6-23.1-8.8-40.7-8c-20.7-0.8-35.1,4.8-43.9,16
	c-5.6,6.4-10.4,16-12,30.3h-83C985.1,1204.9,992.3,1181,1006.7,1162.6L1006.7,1162.6z M844.7,1034.2h83v432.4h-83V1034.2z
	 M1396.8,1177.8c16.7-23.1,36.7-38.3,59-47.1l31.9-8.8l21.5-1.6l0.8,84.6l-25.5-1.6c-16,0-31.1,4.8-45.5,14.4
	c-12.8,8.8-23.2,19.2-28.7,31.9c-7.2,12-10.4,31.1-10.4,58.2v158.8h-82.2v-331.9l79,0.8L1396.8,1177.8L1396.8,1177.8L1396.8,1177.8z
	 M2077.3,932.1l-200.2,200.2l-52.6-52.7l200.2-200.2L2077.3,932.1z M1736.7,837.9v214.6h-74.2V837.9H1736.7z M1913.8,1289.5v-74.2
	h219.4v74.2H1913.8z"/>
<path class="st1" d="M1812.4,1170.6c-34.3-34.3-75.8-51.1-122.9-51.1c-47.1,0-87.8,16.8-121.3,51.1c-34.3,34.3-51.1,75.8-51.1,123.7
	c0,47.9,16.8,89.4,51.1,122.9c33.5,34.3,74.2,51.9,121.3,51.9c47.1,0,88.6-17.6,122.9-51.9c33.5-33.5,50.3-75,50.3-122.9
	C1862.7,1246.4,1846,1204.9,1812.4,1170.6L1812.4,1170.6z M1754.2,1358.9c-17.6,18.4-39.1,27.1-64.6,27.1
	c-24.7,0-46.3-8.8-63.8-27.1c-17.6-18.4-27.1-39.9-27.1-64.6c0-26.3,9.6-47.9,27.1-65.4c17.5-18.4,39.1-27.1,63.8-26.3
	c25.5-0.8,47.1,8,65.4,26.3c16.7,17.6,25.5,39.1,26.3,65.4C1780.6,1319,1771.8,1340.5,1754.2,1358.9L1754.2,1358.9z"/>
<path class="st0" d="M1689.6,1386c25.5,0,47.1-8.8,64.6-27.1s26.3-39.9,27.1-64.6c-0.8-26.3-9.6-47.9-27.1-65.4
	c-17.6-18.4-39.1-27.1-64.6-26.3c-24.7-0.8-46.3,8-63.8,26.3c-17.6,17.6-27.1,39.1-27.1,65.4c0,24.7,9.6,46.3,27.1,64.6
	C1643.3,1377.2,1664.9,1386,1689.6,1386z"/>
<path class="st1" d="M597.4,1034.2c-59.8-0.8-109.3,19.9-150.8,63c-42.3,42.3-63,92.5-63,152.4c0,59,20.8,110.9,63,153.2
	c41.5,41.5,90.9,62.2,150.8,62.2c47.9,0,91.7-14.4,130-43.9c37.5-30.3,62.2-67.8,75-114.1h-87c-10.9,21.9-27.1,40.8-47.1,55
	c-22.3,13.6-45.5,20.8-71,20.8c-36.7,0-67.8-13.6-93.3-39.1c-26.3-26.3-39.1-57.4-38.3-94.1c-0.8-36.7,12-67.8,38.3-94.1
	c25.5-25.5,56.7-39.1,93.3-39.1c25.5,0,48.7,7.2,71,21.5c19.9,13.6,35.9,32.7,47.1,55.1h87c-12.8-46.3-37.5-84.6-75-114.1
	C689.1,1048.6,645.3,1033.4,597.4,1034.2z M1123.9,1118.8c-55.8-0.8-94.9,14.4-117.3,43.9c-14.4,18.4-21.5,42.3-23.9,72.6h83
	c1.6-14.4,6.4-23.9,12-30.3c8.8-11.2,23.1-16.8,43.9-16c17.6-0.8,31.1,2.4,40.7,8c9.6,4.8,13.6,14.4,14.4,27.9
	c0,11.2-6.4,19.9-19.1,25.5l-63.8,10.4c-29.5,4-53.4,11.2-71.8,21.5c-31.1,18.4-46.3,47.9-45.5,90.2c-0.8,29.5,8.8,53.4,27.9,71
	c16.8,14.4,39.9,22.3,67.8,23.1c45.5-0.8,81.4-12,106.9-34.3v34.3h83v-244.1c0-39.9-14.4-67.8-41.5-82.2
	C1191.8,1125.1,1159.8,1118,1123.9,1118.8L1123.9,1118.8z M1159.1,1306.2l16-8.8v33.5c0,28.7-8,48.7-23.1,59.8
	c-16,11.2-32.7,16.7-51.9,16.7c-12,0-21.5-3.2-29.5-9.6c-8-7.2-12-17.6-12-32.7c0-16.8,6.4-28.7,19.9-37.5c8-4.8,21.5-8.8,39.1-11.2
	L1159.1,1306.2L1159.1,1306.2z"/>
<path class="st0" d="M1175,1297.5l-16,8.8l-41.5,10.4c-17.5,2.4-31.1,6.4-39.1,11.2c-13.6,8.8-19.9,20.8-19.9,37.5
	c0,15.2,4,25.5,12,32.7c8,6.4,17.5,9.6,29.5,9.6c19.1,0,35.9-5.6,51.9-16.7c15.2-11.2,23.1-31.1,23.1-59.8L1175,1297.5L1175,1297.5
	L1175,1297.5z"/>
<path class="st1" d="M927.7,1034.2h-83v432.4h83V1034.2z M1455.8,1130.7c-22.3,8.8-42.3,23.9-59,47.1v-42.3l-79-0.8v331.9h82.2
	v-158.8c0-27.1,3.2-46.3,10.4-58.2c5.6-12.8,16-23.1,28.7-31.9c14.4-9.6,29.5-14.4,45.5-14.4l25.5,1.6l-0.8-84.6l-21.5,1.6
	L1455.8,1130.7L1455.8,1130.7z M1877.1,1132.3l200.2-200.3l-52.6-52.6l-200.2,200.2L1877.1,1132.3z M1736.7,1052.5V837.9h-74.2
	v214.6L1736.7,1052.5L1736.7,1052.5z M1913.8,1215.3v74.2h219.4v-74.2H1913.8z"/>
</svg>
